<svg width="24" height="24" viewBox="0 0 24 24" fill="none" xmlns="http://www.w3.org/2000/svg">
<path d="M13.5001 9.7C13.7001 10 14.0001 10.1 14.3001 10.1C14.6001 10.1 14.8001 10 15.0001 9.9C15.9001 9.1 16.4001 8.1 16.4001 6.9C16.4001 4.7 14.6001 3 12.5001 3C11.2001 3 10.0001 3.6 9.3001 4.7C9.0001 5.1 9.1001 5.8 9.6001 6.1C10.1001 6.4 10.7001 6.3 11.0001 5.8C11.3001 5.3 11.9001 5 12.5001 5C13.6001 5 14.4001 5.9 14.4001 6.9C14.4001 7.4 14.1001 7.9 13.6001 8.3C13.2001 8.6 13.1001 9.3 13.5001 9.7Z" fill="#F1FDFF"/>
<path fill-rule="evenodd" clip-rule="evenodd" d="M21.5 20.4998L13.5 12.4998L4.7 3.5998C4.3 3.1998 3.7 3.1998 3.3 3.5998C2.9 3.9998 2.9 4.5998 3.3 4.9998L10.8 12.4998C9 12.5998 7.4 12.9998 6.1 13.5998C3.8 14.6998 3.5 15.8998 3.5 16.5998C3.5 17.4998 3.8 18.6998 5.6 19.5998C7.2 20.4998 9.5 20.8998 12.5 20.8998C14.9 20.8998 16.8 20.5998 18.3 20.0998L20.1 21.8998C20.3 22.0998 20.6 22.1998 20.8 22.1998C21.1 22.1998 21.3 22.0998 21.5 21.8998C21.9 21.4998 21.9 20.8998 21.5 20.4998ZM12.5 18.8998C9.2 18.8998 7.5 18.3998 6.6 17.8998C5.9 17.4998 5.5 17.0998 5.5 16.6998C5.5 16.4998 5.8 15.9998 7 15.4998C8.4 14.8998 10.4 14.4998 12.5 14.4998H12.7L16.7 18.4998C15.7 18.6998 14.4 18.8998 12.5 18.8998Z" fill="#F1FDFF"/>
<path d="M20.5 17.6999C19.9 17.6999 19.5 17.2999 19.5 16.6999C19.5 15.9999 18.3 15.1999 17.1 14.8999C16.6 14.6999 16.3 14.1999 16.4 13.6999C16.6 13.1999 17.1 12.8999 17.6 12.9999C19 13.3999 21.4 14.6999 21.4 16.7999C21.5 17.2999 21.1 17.6999 20.5 17.6999Z" fill="#F1FDFF"/>
</svg>
