<svg width="24" height="24" viewBox="0 0 24 24" fill="none" xmlns="http://www.w3.org/2000/svg">
<g clip-path="url(#clip0_3543_6198)">
<path d="M18.0996 17C16.6996 17 15.5996 18.1 15.5996 19.5C15.5996 20.9 16.6996 22 18.0996 22C19.4996 22 20.5996 20.9 20.5996 19.5C20.5996 18.1 19.4996 17 18.0996 17ZM18.0996 20C17.7996 20 17.5996 19.8 17.5996 19.5C17.5996 19.2 17.7996 19 18.0996 19C18.3996 19 18.5996 19.2 18.5996 19.5C18.5996 19.8 18.3996 20 18.0996 20Z" fill="#F1FDFF"/>
<path d="M10.0996 17C8.69961 17 7.59961 18.1 7.59961 19.5C7.59961 20.9 8.69961 22 10.0996 22C11.4996 22 12.5996 20.9 12.5996 19.5C12.5996 18.1 11.4996 17 10.0996 17ZM10.0996 20C9.79961 20 9.59961 19.8 9.59961 19.5C9.59961 19.2 9.79961 19 10.0996 19C10.3996 19 10.5996 19.2 10.5996 19.5C10.5996 19.8 10.3996 20 10.0996 20Z" fill="#F1FDFF"/>
<path d="M20.5 14.5L22.2 6.2C22.3 5.9 22.2 5.6 22 5.4C21.8 5.2 21.5 5 21.2 5H6.1L5.3 1.7C5.1 1.3 4.7 1 4.3 1H2C1.4 1 1 1.4 1 2C1 2.6 1.4 3 2 3H3.5L4.4 6.3L7.1 16C7.2 16.5 7.7 16.8 8.2 16.7L19.6 15.3C20 15.3 20.4 14.9 20.5 14.5ZM6.7 7H20L18.6 13.4L8.7 14.6L6.7 7Z" fill="#F1FDFF"/>
</g>
<defs>
<clipPath id="clip0_3543_6198">
<rect width="24" height="24" fill="white"/>
</clipPath>
</defs>
</svg>
