<svg width="24" height="24" viewBox="0 0 24 24" fill="none" xmlns="http://www.w3.org/2000/svg">
<path d="M6.2 21.9C3.9 21.9 2 20 2 17.7V7.1C2 4.8 3.9 2.9 6.2 2.9H13.1C13.7 2.9 14.1 3.3 14.1 3.9C14.1 4.5 13.7 4.9 13.1 4.9H6.2C5 4.9 4 5.9 4 7.1V17.8C4 18.9 4.8 19.8 5.8 20L14.5 11.8C14.9 11.4 15.5 11.4 15.9 11.8L19 14.9V12.5C19 11.9 19.4 11.5 20 11.5C20.6 11.5 21 11.9 21 12.5V17.8C21 20.1 19.1 22 16.8 22H6.2V21.9ZM8.7 19.9H16.8C18 19.9 19 18.9 19 17.7V17.5C18.9 17.5 18.8 17.4 18.8 17.3L15.2 13.7L8.7 19.9ZM7.8 11.3C6.4 11.3 5.2 10.1 5.2 8.7C5.2 7.3 6.4 6.1 7.8 6.1C9.2 6.1 10.4 7.3 10.4 8.7C10.4 10.1 9.2 11.3 7.8 11.3ZM7.8 8.1C7.5 8.1 7.2 8.4 7.2 8.7C7.2 9 7.5 9.3 7.8 9.3C8.1 9.3 8.4 9 8.4 8.7C8.4 8.4 8.1 8.1 7.8 8.1ZM19 10C18.4 10 18 9.6 18 9V7H16C15.4 7 15 6.6 15 6C15 5.4 15.4 5 16 5H18V3C18 2.4 18.4 2 19 2C19.6 2 20 2.4 20 3V5H22C22.6 5 23 5.4 23 6C23 6.6 22.6 7 22 7H20V9C20 9.6 19.5 10 19 10Z" fill="#00141F"/>
</svg>
