<svg width="24" height="24" viewBox="0 0 24 24" fill="none" xmlns="http://www.w3.org/2000/svg">
<path d="M7 22C6.90566 22 6.71698 22 6.62264 21.9057C6.24528 21.717 6.0566 21.434 6.0566 21.0566V17.283H4.83019C3.22642 17.283 2 16.0566 2 14.4528V4.83019C2 3.22642 3.22642 2 4.83019 2H19.1698C20.7736 2 22 3.22642 22 4.83019V14.4528C22 16.0566 20.7736 17.283 19.1698 17.283H12.0943L7.66038 21.717C7.4717 21.9057 7.18868 22 7 22ZM4.83019 3.88679C4.26415 3.88679 3.88679 4.26415 3.88679 4.83019V14.4528C3.88679 15.0189 4.26415 15.3962 4.83019 15.3962H7C7.56604 15.3962 7.9434 15.7736 7.9434 16.3396V18.7925L11.0566 15.6792C11.2453 15.4906 11.434 15.3962 11.717 15.3962H19.1698C19.7358 15.3962 20.1132 15.0189 20.1132 14.4528V4.83019C20.1132 4.26415 19.7358 3.88679 19.1698 3.88679H4.83019Z" fill="#F1FDFF"/>
</svg>
