<svg width="25" height="24" viewBox="0 0 25 24" fill="none" xmlns="http://www.w3.org/2000/svg">
<path d="M18.1 22H6.9C4.5 22 2.5 20 2.5 17.6V6.4C2.5 4 4.5 2 6.9 2H18.2C20.5 2 22.5 4 22.5 6.4V17.7C22.5 20 20.5 22 18.1 22ZM6.9 4C5.6 4 4.5 5.1 4.5 6.4V17.7C4.5 18.9 5.6 20 6.9 20H18.2C19.5 20 20.6 18.9 20.6 17.6V6.4C20.5 5.1 19.4 4 18.1 4H6.9ZM12.5 16.4C11.9 16.4 11.5 16 11.5 15.4C11.5 14.8 11.9 14.4 12.5 14.4C13.1 14.4 13.5 14.8 13.5 15.4C13.5 15.9 13.1 16.4 12.5 16.4ZM12.5 13C11.9 13 11.5 12.6 11.5 12V7.5C11.5 6.9 11.9 6.5 12.5 6.5C13.1 6.5 13.5 6.9 13.5 7.5V12C13.5 12.6 13.1 13 12.5 13Z" fill="#FFA599"/>
</svg>
