<svg width="24" height="24" viewBox="0 0 24 24" fill="none" xmlns="http://www.w3.org/2000/svg">
<g clip-path="url(#clip0_3543_6194)">
<path d="M12 20C11.717 20 11.5283 19.9071 11.3396 19.7213L3.60377 12.1038C2.56604 10.8962 2 9.59563 2 8.38798C2 6.99454 2.56604 5.60109 3.60377 4.57923C4.64151 3.55738 6.0566 3 7.4717 3C8.88679 3 10.3019 3.55738 11.3396 4.57923L12 5.22951L12.6604 4.57923C13.6981 3.55738 15.1132 3 16.5283 3C17.9434 3 19.3585 3.55738 20.3962 4.57923C21.434 5.60109 22 6.99454 22 8.38798C22 9.68853 21.434 10.8962 20.4906 12.1038L12.6604 19.8142C12.4717 19.9071 12.283 20 12 20ZM7.4717 4.85792C6.5283 4.85792 5.58491 5.22951 4.92453 5.87978C4.26415 6.53005 3.88679 7.36612 3.88679 8.38798C3.88679 9.22404 4.26415 10.0601 5.01887 10.9891L12 17.8634L19.0755 10.8962C19.7358 10.0601 20.1132 9.22404 20.1132 8.38798C20.1132 7.45902 19.7358 6.53005 19.0755 5.87978C17.7547 4.57923 15.3962 4.57923 13.9811 5.87978L12.6604 7.18033C12.283 7.55191 11.717 7.55191 11.3396 7.18033L10.0189 5.87978C9.35849 5.22951 8.41509 4.85792 7.4717 4.85792Z" fill="#F1FDFF"/>
</g>
<defs>
<clipPath id="clip0_3543_6194">
<rect width="24" height="24" fill="white"/>
</clipPath>
</defs>
</svg>
