<svg width="24" height="24" viewBox="0 0 24 24" fill="none" xmlns="http://www.w3.org/2000/svg">
<path d="M11 21C8 21 5.7 20.6 4.1 19.8C2.3 18.9 2 17.7 2 16.8C2 16.1 2.3 14.9 4.6 13.8C6.3 13 8.6 12.6 11 12.6H12C12.6 12.6 13 13.1 13 13.6C13 14.2 12.5 14.6 12 14.6H11.1C9 14.6 7 15 5.6 15.6C4.4 16.1 4.1 16.6 4.1 16.8C4.1 17.2 4.5 17.6 5.2 18C6.1 18.5 7.8 19 11.1 19H12.7C13.2 19 13.7 19.4 13.7 20C13.7 20.6 13.3 21 12.7 21H11Z" fill="#F1FDFF"/>
<path fill-rule="evenodd" clip-rule="evenodd" d="M11 10.9C8.9 10.9 7.2 9.1 7.2 7C7.2 4.9 9 3 11 3C13 3 14.8 4.9 14.8 7C14.8 9.1 13.1 10.9 11 10.9ZM11 5C10.1 5 9.2 6 9.2 7C9.2 8 10.1 8.9 11 8.9C11.9 8.9 12.8 8 12.8 7C12.8 6 11.9 5 11 5Z" fill="#F1FDFF"/>
<path d="M20.2002 16H15.2002C14.6002 16 14.2002 15.6 14.2002 15C14.2002 14.4 14.6002 14 15.2002 14H20.2002C20.8002 14 21.2002 14.4 21.2002 15C21.2002 15.6 20.8002 16 20.2002 16Z" fill="#F1FDFF"/>
<path d="M17.2002 20.1001H20.2002C20.8002 20.1001 21.2002 19.7001 21.2002 19.1001C21.2002 18.5001 20.8002 18.1001 20.2002 18.1001H17.2002C16.6002 18.1001 16.2002 18.5001 16.2002 19.1001C16.2002 19.7001 16.6002 20.1001 17.2002 20.1001Z" fill="#F1FDFF"/>
</svg>
