<svg width="25" height="24" viewBox="0 0 25 24" fill="none" xmlns="http://www.w3.org/2000/svg">
<g clip-path="url(#clip0_1632_17170)">
<path d="M18.4104 22H7.08962C4.73113 22 2.75 20.0189 2.75 17.6604V6.33962C2.75 3.98113 4.73113 2 7.08962 2H18.4104C20.7689 2 22.75 3.98113 22.75 6.33962V17.6604C22.75 20.0189 20.7689 22 18.4104 22ZM13.6934 20.1132H18.4104C19.7311 20.1132 20.8632 18.9811 20.8632 17.6604V12.9434H13.6934V20.1132ZM4.63679 12.9434V17.6604C4.63679 18.9811 5.76887 20.1132 7.08962 20.1132H11.8066V12.9434H4.63679ZM13.6934 11.0566H20.8632V6.33962C20.8632 5.01887 19.7311 3.88679 18.4104 3.88679H13.6934V11.0566ZM4.63679 11.0566H11.8066V3.88679H7.08962C5.76887 3.88679 4.63679 5.01887 4.63679 6.33962V11.0566Z" fill="#49FFDE"/>
</g>
<defs>
<clipPath id="clip0_1632_17170">
<rect width="24" height="24" fill="white" transform="translate(0.75)"/>
</clipPath>
</defs>
</svg>
