<svg width="24" height="24" viewBox="0 0 24 24" fill="none" xmlns="http://www.w3.org/2000/svg">
<path d="M12.0138 22C10.8138 22 9.61384 21.6 8.71384 20.9C8.31384 20.6 8.21384 19.9 8.51384 19.5C8.81384 19.1 9.51384 19 9.91384 19.3C11.0138 20.2 12.9138 20.2 14.0138 19.3C14.4138 19 15.1138 19 15.4138 19.5C15.7138 19.9 15.7138 20.6 15.2138 20.9C14.4138 21.6 13.2138 22 12.0138 22ZM19.5138 18.2H4.51384C4.01384 18.2 3.51384 17.9 3.21384 17.4C2.91384 16.8 2.91384 16.1 3.31384 15.6C3.71384 15 4.31384 13.9 4.31384 12.6V10.4C4.31384 5.7 7.81384 2 12.0138 2C16.3138 2 19.8138 5.8 19.8138 10.5V12.6C19.8138 13.9 20.3138 15 20.8138 15.7C21.1138 16.2 21.2138 16.9 20.9138 17.5C20.5138 17.9 20.0138 18.2 19.5138 18.2ZM5.31384 16.2H18.8138C18.3138 15.3 17.8138 14.1 17.8138 12.6V10.5C17.8138 6.9 15.2138 4 12.0138 4C8.91384 4 6.31384 6.8 6.31384 10.4V12.6C6.31384 14.1 5.81384 15.3 5.31384 16.2Z" fill="#F1FDFF"/>
</svg>
