<svg width="24" height="24" viewBox="0 0 24 24" fill="none" xmlns="http://www.w3.org/2000/svg">
<path d="M18.6 7.6C18.6 3.9 15.7 1 12.2 1C8.7 1 5.8 3.9 5.8 7.5V7.6C4.7 8 4 9 4 10.2V19.3C4 20.9 5.3 22.1 6.8 22.1H17.6C19.1 22.1 20.4 20.8 20.4 19.3V10.2C20.4 9 19.7 8 18.6 7.6ZM12.2 3C14.6 3 16.6 5 16.6 7.4H7.8C7.8 5 9.8 3 12.2 3ZM18.4 19.4C18.4 19.8 18 20.2 17.6 20.2H6.8C6.4 20.2 6 19.8 6 19.4V10.3C6 9.8 6.4 9.5 6.8 9.5H17.6C18 9.5 18.4 9.9 18.4 10.3V19.4Z" fill="#F1FDFF"/>
<path d="M12.2004 12C10.7004 12 9.40039 13.3 9.40039 14.8C9.40039 16.3 10.7004 17.6 12.2004 17.6C13.7004 17.6 15.0004 16.3 15.0004 14.8C15.0004 13.3 13.7004 12 12.2004 12ZM12.2004 15.6C11.8004 15.6 11.4004 15.2 11.4004 14.8C11.4004 14.4 11.8004 14 12.2004 14C12.6004 14 13.0004 14.4 13.0004 14.8C13.0004 15.2 12.6004 15.6 12.2004 15.6Z" fill="#F1FDFF"/>
</svg>
