<svg width="24" height="24" viewBox="0 0 24 24" fill="none" xmlns="http://www.w3.org/2000/svg">
<path d="M20.0943 19H3.90566C2.34906 19 1 17.7 1 16.2V7.8C1 6.3 2.34906 5 3.90566 5H20.0943C21.6509 5 23 6.3 23 7.8V16.2C23 17.7 21.6509 19 20.0943 19ZM3.90566 7C3.49057 7 3.07547 7.4 3.07547 7.8V16.2C3.07547 16.6 3.49057 17 3.90566 17H20.0943C20.5094 17 20.9245 16.6 20.9245 16.2V7.8C20.9245 7.4 20.5094 7 20.0943 7H3.90566ZM12 15.4C10.0283 15.4 8.4717 13.9 8.4717 12C8.4717 10.1 10.0283 8.6 12 8.6C13.9717 8.6 15.5283 10.1 15.5283 12C15.5283 13.9 13.9717 15.4 12 15.4ZM12 10.6C11.1698 10.6 10.5472 11.2 10.5472 12C10.5472 12.8 11.1698 13.4 12 13.4C12.8302 13.4 13.4528 12.8 13.4528 12C13.4528 11.2 12.8302 10.6 12 10.6ZM5.77358 13C5.46226 13 5.25472 12.9 5.04717 12.7C4.63208 12.3 4.63208 11.7 5.04717 11.3C5.46226 10.9 6.08491 10.9 6.5 11.3C6.91509 11.7 6.91509 12.3 6.5 12.7C6.29245 12.9 6.08491 13 5.77358 13ZM18.2264 13C17.9151 13 17.7075 12.9 17.5 12.7C17.0849 12.3 17.0849 11.7 17.5 11.3C17.9151 10.9 18.5377 10.9 18.9528 11.3C19.3679 11.7 19.3679 12.3 18.9528 12.7C18.7453 12.9 18.434 13 18.2264 13Z" fill="#F1FDFF"/>
</svg>
