<svg width="25" height="24" viewBox="0 0 25 24" fill="none" xmlns="http://www.w3.org/2000/svg">
<path d="M19.2 22H6.6C5.8 22 5 21.7 4.4 21.1C3.8 20.5 3.5 19.7 3.5 18.9V15.2C3.5 14.6 3.9 14.2 4.5 14.2C5.1 14.2 5.5 14.6 5.5 15.2V18.9C5.5 19.2 5.6 19.5 5.8 19.7C6 19.9 6.3 20 6.6 20H19.2C19.5 20 19.8 19.9 20 19.7C20.2 19.5 20.3 19.2 20.3 18.9V15.2C20.3 14.6 20.7 14.2 21.3 14.2C21.9 14.2 22.3 14.6 22.3 15.2V18.9C22.3 19.7 22 20.5 21.4 21.1C20.8 21.7 20 22 19.2 22ZM12.9 16C12.3 16 11.9 15.6 11.9 15V5.3L8.7 8.3C8.3 8.7 7.7 8.7 7.3 8.3C6.9 7.9 6.9 7.3 7.3 6.9L12.1 2.3C12.4 2 12.7 2 12.9 2C13 2 13.1 2 13.3 2.1C13.4 2.1 13.5 2.2 13.6 2.3L18.4 6.9C18.8 7.3 18.8 7.9 18.4 8.3C18 8.7 17.4 8.7 17 8.3L13.9 5.3V15C13.9 15.5 13.5 16 12.9 16Z" fill="#24E5C2"/>
</svg>
