<svg width="25" height="24" viewBox="0 0 25 24" fill="none" xmlns="http://www.w3.org/2000/svg">
<g clip-path="url(#clip0_1632_17171)">
<path d="M3.75 20C3.15 20 2.75 19.5733 2.75 18.9333C2.75 18.2933 3.15 17.8667 3.75 17.8667C4.35 17.8667 4.75 18.2933 4.75 18.9333C4.75 19.4667 4.35 20 3.75 20ZM21.75 20H8.85C8.25 20 7.85 19.5733 7.85 18.9333C7.85 18.2933 8.25 17.8667 8.85 17.8667H21.75C22.35 17.8667 22.75 18.2933 22.75 18.9333C22.75 19.5733 22.35 20 21.75 20ZM3.75 13.0667C3.15 13.0667 2.75 12.64 2.75 12C2.75 11.36 3.15 10.9333 3.75 10.9333C4.35 10.9333 4.75 11.36 4.75 12C4.75 12.5333 4.35 13.0667 3.75 13.0667ZM21.75 13.0667H8.85C8.25 13.0667 7.85 12.64 7.85 12C7.85 11.36 8.25 10.9333 8.85 10.9333H21.75C22.35 10.9333 22.75 11.36 22.75 12C22.75 12.64 22.35 13.0667 21.75 13.0667ZM3.75 6.13333C3.15 6.13333 2.75 5.70667 2.75 5.06667C2.75 4.42667 3.15 4 3.75 4C4.35 4 4.75 4.42667 4.75 5.06667C4.75 5.70667 4.35 6.13333 3.75 6.13333ZM21.75 6.13333H8.85C8.25 6.13333 7.85 5.70667 7.85 5.06667C7.85 4.42667 8.25 4 8.85 4H21.75C22.35 4 22.75 4.42667 22.75 5.06667C22.75 5.70667 22.35 6.13333 21.75 6.13333Z" fill="#F1FDFF"/>
</g>
<defs>
<clipPath id="clip0_1632_17171">
<rect width="24" height="24" fill="white" transform="translate(0.75)"/>
</clipPath>
</defs>
</svg>
