<svg width="24" height="24" viewBox="0 0 24 24" fill="none" xmlns="http://www.w3.org/2000/svg">
<path d="M12 22C10.7 22 9.7 21.2 9.4 19.9C9.4 19.8 9.3 19.7 9.2 19.6C9.1 19.5 9 19.4 8.9 19.4C8.8 19.4 8.7 19.3 8.6 19.3C8.5 19.3 8.4 19.3 8.3 19.4C7.2 20.1 5.9 19.9 5 19C4.1 18.1 3.9 16.8 4.6 15.7C4.7 15.6 4.7 15.5 4.7 15.4C4.7 15.3 4.7 15.2 4.6 15.1C4.6 15 4.5 14.9 4.4 14.8C4.3 14.7 4.2 14.7 4.1 14.6C2.8 14.3 2 13.3 2 12C2 10.7 2.8 9.7 4.1 9.4C4.3 9.3 4.5 9.2 4.6 9C4.7 8.8 4.7 8.5 4.5 8.3C3.9 7.2 4 5.8 4.9 4.9C5.8 4 7.2 3.9 8.3 4.5C8.4 4.6 8.5 4.6 8.6 4.6C8.7 4.6 8.8 4.6 8.9 4.5C9 4.5 9.1 4.4 9.2 4.3C9.3 4.2 9.3 4.1 9.4 4C9.7 2.8 10.7 2 12 2C13.3 2 14.3 2.8 14.6 4.1V4.2C14.6 4.3 14.7 4.4 14.7 4.4C14.8 4.5 14.9 4.6 15 4.6C15.1 4.6 15.2 4.7 15.3 4.7C15.4 4.7 15.5 4.7 15.6 4.6C16.7 3.9 18 4.1 18.9 5C19.8 5.9 20 7.2 19.3 8.3C19.2 8.4 19.2 8.5 19.2 8.6C19.2 8.7 19.2 8.8 19.3 8.9C19.3 9 19.4 9.1 19.5 9.2C19.6 9.3 19.7 9.3 19.8 9.4C21.2 9.7 22 10.7 22 12C22 13.3 21.2 14.3 19.9 14.6C19.8 14.6 19.7 14.7 19.6 14.8C19.5 14.9 19.4 15 19.4 15.1C19.4 15.2 19.3 15.3 19.3 15.4C19.3 15.5 19.3 15.6 19.4 15.7C20.1 16.8 19.9 18.1 19 19C18.1 19.9 16.8 20.1 15.7 19.4C15.6 19.3 15.5 19.3 15.4 19.3C15.3 19.3 15.2 19.3 15.1 19.4C15 19.4 14.9 19.5 14.8 19.6C14.7 19.7 14.7 19.8 14.6 19.9C14.3 21.2 13.3 22 12 22ZM8.6 17.4C9 17.4 9.3 17.5 9.6 17.6C10 17.8 10.4 18 10.6 18.3C10.9 18.6 11.1 19 11.2 19.4C11.4 20 11.9 20 12 20C12.1 20 12.6 20 12.7 19.4C12.8 19 13 18.6 13.3 18.3C13.6 18 13.9 17.7 14.3 17.6C14.7 17.5 15.1 17.4 15.6 17.4C16 17.4 16.4 17.6 16.8 17.8C17.3 18.1 17.6 17.8 17.7 17.7C17.8 17.6 18.1 17.3 17.8 16.8C17.6 16.4 17.4 16 17.4 15.6C17.4 15.2 17.4 14.7 17.6 14.4C17.8 14 18 13.6 18.3 13.4C18.6 13.1 19 12.9 19.4 12.8C20 12.6 20 12.1 20 12C20 11.9 20 11.4 19.4 11.3C19 11.2 18.6 11 18.3 10.7C18 10.4 17.7 10.1 17.6 9.7C17.4 9.3 17.4 8.9 17.4 8.4C17.4 8 17.6 7.6 17.8 7.2C18.1 6.7 17.8 6.4 17.7 6.3C17.6 6.2 17.3 5.9 16.8 6.2C16.4 6.4 16 6.6 15.6 6.6C15.2 6.6 14.7 6.6 14.3 6.4C13.9 6.2 13.6 6 13.3 5.7C13 5.4 12.8 5 12.7 4.6V4.5C12.5 4 12.1 4 12 4C11.9 4 11.4 4 11.3 4.6C11.2 5 11 5.4 10.7 5.7C10.4 6 10.1 6.3 9.7 6.4C9.3 6.6 8.9 6.7 8.4 6.6C8 6.6 7.6 6.5 7.2 6.2C6.8 6 6.4 6.2 6.3 6.3C6.2 6.4 6 6.8 6.2 7.2C6.7 8 6.8 8.9 6.4 9.7C6.1 10.5 5.4 11.1 4.5 11.3C4 11.4 4 11.9 4 12C4 12.1 4 12.6 4.6 12.7C5 12.8 5.4 13 5.7 13.3C6 13.6 6.3 13.9 6.4 14.3C6.6 14.7 6.6 15.1 6.6 15.6C6.6 16 6.4 16.4 6.2 16.8C5.9 17.3 6.2 17.6 6.3 17.7C6.4 17.8 6.7 18.1 7.2 17.8C7.6 17.6 8 17.4 8.4 17.4C8.5 17.4 8.6 17.4 8.6 17.4Z" fill="#F1FDFF"/>
<path d="M12 15C10.3 15 9 13.7 9 12C9 10.3 10.3 9 12 9C13.7 9 15 10.3 15 12C15 13.7 13.7 15 12 15ZM12 11C11.4 11 11 11.4 11 12C11 12.6 11.4 13 12 13C12.6 13 13 12.6 13 12C13 11.4 12.6 11 12 11Z" fill="#F1FDFF"/>
</svg>
