<svg width="24" height="24" viewBox="0 0 24 24" fill="none" xmlns="http://www.w3.org/2000/svg">
<path d="M11.8 22.1375C5.8 22.1375 1 17.3375 1 11.3375C1 6.5375 4.1 2.3375 8.7 1.0375C9.1 0.9375 9.4 1.0375 9.7 1.3375C10 1.6375 10.1 1.9375 10 2.3375C9.7 3.1375 9.6 4.0375 9.6 4.9375C9.6 9.8375 13.6 13.7375 18.4 13.7375C19.3 13.7375 20.1 13.6375 21 13.3375C21.4 13.2375 21.7 13.3375 22 13.6375C22.3 13.9375 22.4 14.2375 22.3 14.6375C20.8 19.0375 16.6 22.1375 11.8 22.1375ZM7.6 3.5375C4.8 5.0375 3 7.9375 3 11.3375C3 16.2375 7 20.1375 11.8 20.1375C15.1 20.1375 18 18.3375 19.6 15.5375C19.2 15.5375 18.8 15.6375 18.4 15.6375C12.4 15.6375 7.6 10.8375 7.6 4.8375C7.5 4.3375 7.6 3.9375 7.6 3.5375Z" fill="#F1FDFF"/>
</svg>
