<svg width="73" height="67" viewBox="0 0 73 67" fill="none" xmlns="http://www.w3.org/2000/svg">
<path d="M62.75 64H10.25C8.26088 64 6.35322 63.2098 4.9467 61.8033C3.54018 60.3968 2.75 58.4891 2.75 56.5V22.75C2.75 20.7609 3.54018 18.8532 4.9467 17.4467C6.35322 16.0402 8.26088 15.25 10.25 15.25H62.75C64.7391 15.25 66.6468 16.0402 68.0533 17.4467C69.4598 18.8532 70.25 20.7609 70.25 22.75V56.5C70.25 58.4891 69.4598 60.3968 68.0533 61.8033C66.6468 63.2098 64.7391 64 62.75 64Z" stroke="#F1FDFF" stroke-width="5"/>
<path d="M53.375 41.5C52.8777 41.5 52.4008 41.3025 52.0492 40.9508C51.6975 40.5992 51.5 40.1223 51.5 39.625C51.5 39.1277 51.6975 38.6508 52.0492 38.2992C52.4008 37.9475 52.8777 37.75 53.375 37.75C53.8723 37.75 54.3492 37.9475 54.7008 38.2992C55.0525 38.6508 55.25 39.1277 55.25 39.625C55.25 40.1223 55.0525 40.5992 54.7008 40.9508C54.3492 41.3025 53.8723 41.5 53.375 41.5Z" fill="#F1FDFF" stroke="#F1FDFF" stroke-width="5" stroke-linecap="round" stroke-linejoin="round"/>
<path d="M59 15.2484V10.0096C58.9997 8.86027 58.7352 7.72635 58.227 6.69545C57.7188 5.66454 56.9804 4.76424 56.0689 4.06405C55.1575 3.36387 54.0973 2.88254 52.9702 2.65723C51.8431 2.43192 50.6794 2.46867 49.5687 2.76463L8.31875 13.7634C6.72145 14.189 5.30952 15.1305 4.30246 16.4414C3.2954 17.7522 2.74963 19.3591 2.75 21.0121V22.7484" stroke="#F1FDFF" stroke-width="5"/>
</svg>
